<svg width="177" height="420" viewBox="0 0 177 420" fill="none" xmlns="http://www.w3.org/2000/svg">
<mask id="mask0_847266_567" style="mask-type:alpha" maskUnits="userSpaceOnUse" x="49" y="0" width="128" height="420">
<rect x="177" y="3.05176e-05" width="420" height="127" transform="rotate(90 177 3.05176e-05)" fill="#D9D9D9"/>
</mask>
<g mask="url(#mask0_847266_567)">
<path d="M177 210L51.7495 473.183L51.7495 -53.1828L177 210Z" fill="#F2E852"/>
<path d="M152 210L26.7495 473.183L26.7495 -53.1828L152 210Z" fill="white"/>
</g>
<mask id="mask1_847266_567" style="mask-type:alpha" maskUnits="userSpaceOnUse" x="-1" y="0" width="128" height="420">
<rect x="127" y="3.05176e-05" width="420" height="127" transform="rotate(90 127 3.05176e-05)" fill="#D9D9D9"/>
</mask>
<g mask="url(#mask1_847266_567)">
<path d="M127 210L1.74951 473.183L1.74951 -53.1828L127 210Z" fill="#F2E852"/>
<path d="M102 210L-23.2505 473.183L-23.2505 -53.1828L102 210Z" fill="white"/>
</g>
</svg>
